<svg xmlns="http://www.w3.org/2000/svg" version="1.1" xmlns:xlink="http://www.w3.org/1999/xlink" xmlns:svgjs="http://svgjs.dev/svgjs" width="100%" height="100%" viewBox="0 0 1000 600"><rect width="1000" height="600" x="0" y="0" fill="#e2d3f4"/><g><circle r="166.66666666666666" cx="369.91869608561194" cy="392.140929353709" fill="#013dc4" transform="matrix(0.6149999939941406,0,0,0.6149999939941406,0,58.83333217590328)"/><path d="M341.529636399217 460.2950151639969Q348.6918596914519 458.19379508141697 354.38548830231366 452.74869787817215Q360.0791169131755 447.2810069105985 362.6773998109894 439.328001866855L362.6773998109894 439.328001866855Q364.7786198935694 433.1373104407593 365.433839059105 424.91318022506994Q366.0890582246407 416.7116437737095 366.0890582246407 399.6307579411241L366.0890582246407 399.6307579411241L366.0890582246407 327.3984933818972L350.4767670734284 325.2746795349884L350.4767670734284 317.1409243766144L398.3077661575333 317.1409243766144L398.3077661575333 325.2746795349884L383.48625675782955 327.3984933818972L383.48625675782955 393.2819101647266L383.48625675782955 400.91860250786664Q383.48625675782955 413.77445441096336 383.16994405722613 421.5918968687339Q382.8536313566227 429.3867455621757 381.70134937585306 434.9222178227358L381.70134937585306 434.9222178227358Q378.7867537774357 447.9362260761342 368.84549747275634 456.4088876994404Q358.9268349324058 464.85895555841785 345.9128266790074 467.14092575562836L345.9128266790074 467.14092575562836L341.529636399217 460.2950151639969Z " fill="#e2d3f4" transform="matrix(0.6149999939941406,0,0,0.6149999939941406,0,58.83333217590328)"/><path d="M619.9187011858795 461.20827593554634Q626.1254626558141 459.3873648418431 631.0595443290745 454.6686597495584Q635.9936260023348 449.9303749680941 638.2452902579894 443.03832437687333L638.2452902579894 443.03832437687333Q640.0662013516926 437.67348954166164 640.6340123379011 430.5464826802856Q641.2018233241097 423.43905550808915 641.2018233241097 408.6368104883081L641.2018233241097 408.6368104883081L641.2018233241097 346.0405441811123L627.6722581010029 344.20005339822944L627.6722581010029 337.15136529357176L669.1224600942257 337.15136529357176L669.1224600942257 344.20005339822944L656.2781839924052 346.0405441811123L656.2781839924052 403.1349178288392L656.2781839924052 409.7528527715455Q656.2781839924052 420.89369591474053 656.0040683438907 427.6682683708837Q655.7299526953763 434.4232611378473 654.7313885472164 439.2202849868504L654.7313885472164 439.2202849868504Q652.2056086430474 450.49818595430264 643.5905454040214 457.84056939665436Q634.995061854175 465.1633731498265 623.7171608867227 467.1409217569665L623.7171608867227 467.1409217569665L619.9187011858795 461.20827593554634ZM680.8115345344497 402.56710684263066Q680.8115345344497 389.8794682542469 686.0393115454042 380.5791158939347Q691.2475088671789 371.27876353362257 699.7842533494866 366.40342092790104Q708.3014181426145 361.5476580113591 718.032523664878 361.5476580113591L718.032523664878 361.5476580113591Q735.7913017507793 361.5476580113591 744.7392197058587 372.82555897881133Q753.7067173501175 384.10345994626357 753.7067173501175 402.43004901837344L753.7067173501175 402.43004901837344Q753.7067173501175 415.2547454310144 748.4789403391632 424.5550977913266Q743.2707430173883 433.87502984081834 734.7339985350807 438.65247400064186Q726.2168337419527 443.449497849645 716.4857282196892 443.449497849645L716.4857282196892 443.449497849645Q698.7269501337879 443.449497849645 689.7594524895289 432.1715968821928Q680.8115345344497 420.89369591474053 680.8115345344497 402.56710684263066L680.8115345344497 402.56710684263066ZM717.3276548544122 435.4218252860071Q727.0587603766757 435.4218252860071 732.2669576984505 427.3745730331897Q737.494734709405 419.34690046955177 737.494734709405 403.5656709907905L737.494734709405 403.5656709907905Q737.494734709405 387.90191964710687 732.6977108604018 378.7386251110519Q727.9006870113986 369.57533057499694 717.3276548544122 369.57533057499694L717.3276548544122 369.57533057499694Q707.5965493321487 369.57533057499694 702.3100332536555 377.6225828278144Q697.0235171751623 385.6502553914523 697.0235171751623 401.4510645593932L697.0235171751623 401.4510645593932Q697.0235171751623 417.09523621389724 701.9575988484227 426.2585307499522Q706.8916805216829 435.4218252860071 717.3276548544122 435.4218252860071L717.3276548544122 435.4218252860071ZM760.0505366443094 370.2801993854627L760.0505366443094 363.6622644427564L792.748617574249 363.6622644427564L792.748617574249 370.2801993854627L782.7433964034711 372.12069016834556L796.9778304370436 412.7289655268454L802.8908965692842 430.624801437004L807.9816157559814 413.27719682387436L822.216049789554 372.12069016834556L812.6220020915476 370.2801993854627L812.6220020915476 363.6622644427564L841.2475076721296 363.6622644427564L841.2475076721296 370.2801993854627L833.9051242297779 372.12069016834556L806.708935959307 443.03832437687333L794.7261661813891 443.03832437687333L766.3943559385012 372.12069016834556L760.0505366443094 370.2801993854627ZM846.5927628181616 420.7566380904833Q846.5927628181616 407.50118851589104 859.8482123927539 401.23568797841756Q873.1036619673462 394.95060775176444 893.4077996465961 394.53943427899276L893.4077996465961 394.53943427899276L893.4077996465961 390.58433706471266Q893.4077996465961 383.9664021220063 891.9980620256646 380.1483627319834Q890.588324404733 376.3499030311402 887.1227194199431 374.58773100497575Q883.6766941243327 372.82555897881133 877.3328748301408 372.82555897881133L877.3328748301408 372.82555897881133Q870.147128901226 372.82555897881133 864.4298596607814 374.8618466534902Q858.7321701095165 376.91771401734866 853.0932196257903 379.87424708346896L853.0932196257903 379.87424708346896L849.5688755734615 372.5514433302968Q851.3897866671647 370.9850681959285 856.3238683404251 368.4592882917595Q861.2579500136854 365.9139286984109 867.7388271321346 363.93638009127085Q874.2392839397633 361.9784111733104 880.7201610582124 361.9784111733104L880.7201610582124 361.9784111733104Q890.7253822289903 361.9784111733104 896.5797092936921 364.71956765845505Q902.4340363583939 367.46072414359963 904.9598162625629 373.5304277892771Q907.5051758559114 379.6001314349545 907.5051758559114 389.74241042998966L907.5051758559114 389.74241042998966L907.5051758559114 434.9910721240558L915.8265437572433 434.9910721240558L915.8265437572433 441.1978335939905Q913.0070685153803 441.90270240445625 908.6995368958673 442.607571214922Q904.3920052763543 443.3124400253878 901.1613565617196 443.3124400253878L901.1613565617196 443.3124400253878Q897.2062593474394 443.3124400253878 895.7965217265079 442.1180789854319Q894.3867841055763 440.923717945476 894.3867841055763 436.83156290693864L894.3867841055763 436.83156290693864L894.3867841055763 432.1715968821928Q890.1575712427817 436.4008097449873 884.0291285295656 439.92515379731617Q877.9006858163493 443.449497849645 870.147128901226 443.449497849645L870.147128901226 443.449497849645Q859.9852702170111 443.449497849645 853.2890165175864 437.5951707849432Q846.5927628181616 431.76042340942104 846.5927628181616 420.7566380904833L846.5927628181616 420.7566380904833ZM876.1972528577238 433.87502984081834Q879.8782344234893 433.87502984081834 884.6556785833129 431.60378589598423Q889.452702432316 429.3521216403297 893.4077996465961 426.2585307499522L893.4077996465961 426.2585307499522L893.4077996465961 401.9992958564221Q878.0377436406065 401.9992958564221 870.2058679687648 406.7375806378864Q862.3935719861025 411.45628573017115 862.3935719861025 419.0727848210373L862.3935719861025 419.0727848210373Q862.3935719861025 426.6697042227239 866.1332926194069 430.2723670317711Q869.8534335635319 433.87502984081834 876.1972528577238 433.87502984081834L876.1972528577238 433.87502984081834ZM934.1531328293532 433.71839232738154L934.1531328293532 374.5094122482573L923.9912741451385 371.98363234408833L923.9912741451385 364.36713325322216L944.1583540001312 361.82177365987354L944.5695274729029 361.82177365987354L947.5456402282028 364.36713325322216L947.5456402282028 370.2801993854627L947.389002714766 373.6674856135343Q952.479721901463 369.16415710222526 960.7815101136155 365.5027552256392Q969.1028780149474 361.82177365987354 976.7193771058136 361.82177365987354L976.7193771058136 361.82177365987354Q985.6085559933541 361.82177365987354 990.464318909896 365.20905988794516Q995.320081826438 368.5963461160167 997.297630433578 375.566715463956Q999.275179040718 382.5566645010748 999.275179040718 394.40237645473553L999.275179040718 394.40237645473553L999.275179040718 433.87502984081834L1009.1433423872387 434.85401429979856L1009.1433423872387 441.90270240445625L975.7403926468334 441.90270240445625L975.7403926468334 434.9910721240558L984.472934020937 433.87502984081834L984.472934020937 394.24573894129867Q984.472934020937 385.94395072914637 983.33731204852 381.20566594768206Q982.2212697652825 376.4869608553974 979.1080991857253 374.15697784302444Q976.0145082953478 371.8465745198311 970.1014421631072 371.8465745198311L970.1014421631072 371.8465745198311Q965.0107229764101 371.8465745198311 959.2347146684268 374.3723544240001Q953.4587063604432 376.91771401734866 948.9553778491344 380.3050002454203L948.9553778491344 380.3050002454203L948.9553778491344 433.71839232738154L958.5298458579608 434.9910721240558L958.5298458579608 441.90270240445625L925.2639539418128 441.90270240445625L925.2639539418128 434.9910721240558L934.1531328293532 433.71839232738154ZM1064.827978414034 433.5813345031243L1064.827978414034 345.90348635685507L1053.4130196223246 344.20005339822944L1053.4130196223246 337.15136529357176L1093.8646574673876 337.15136529357176L1093.8646574673876 344.20005339822944L1079.9043390823297 345.90348635685507L1079.9043390823297 433.5813345031243L1116.283401578035 432.30865470645L1124.604769479367 408.6368104883081L1133.2002530292134 409.9094902849823L1128.2661713559528 441.90270240445625L1053.1193242846307 441.90270240445625L1053.1193242846307 434.9910721240558L1064.827978414034 433.5813345031243ZM1206.2324936691384 443.17538220113056Q1202.2773964548583 443.17538220113056 1200.3781666044365 441.6285867559418Q1198.478936754015 440.0622116215734 1198.478936754015 436.53786756924455L1198.478936754015 436.53786756924455L1198.478936754015 431.76042340942104Q1193.818970729269 436.4008097449873 1186.84860138133 439.92515379731617Q1179.858652344211 443.449497849645 1172.8099642395532 443.449497849645L1172.8099642395532 443.449497849645Q1159.7111521783977 443.449497849645 1154.209259518929 436.4008097449873Q1148.7073668594603 429.3521216403297 1148.7073668594603 413.14013899961714L1148.7073668594603 413.14013899961714L1148.7073668594603 372.2577479926028L1140.8167521200794 370.00608373694826L1140.8167521200794 363.7993222670136L1160.553078813121 361.9784111733104L1160.6901366373781 361.9784111733104L1163.372554054984 363.6622644427564L1163.372554054984 412.02409671637963Q1163.372554054984 420.18882710427476 1164.5669150949398 424.77047437230226Q1165.7612761348958 429.3521216403297 1168.7961279577344 431.54504682844544Q1171.8309797805732 433.71839232738154 1177.6069880885566 433.71839232738154L1177.6069880885566 433.71839232738154Q1183.2459385722825 433.71839232738154 1188.180020245543 431.3296702474698Q1193.1141019188033 428.940948167558 1196.7755037953893 425.6907197637437L1196.7755037953893 425.6907197637437L1196.7755037953893 372.2577479926028L1186.6332248003541 370.00608373694826L1186.6332248003541 363.7993222670136L1208.0534047628416 361.9784111733104L1208.1904625870989 361.9784111733104L1211.440690990913 363.6622644427564L1211.440690990913 434.71695647554134L1219.8991167165022 434.71695647554134L1219.762058892245 441.06077576973325Q1215.806961677965 442.0397602287135 1212.928747368563 442.607571214922Q1210.0309533699815 443.17538220113056 1206.2324936691384 443.17538220113056L1206.2324936691384 443.17538220113056ZM1238.6564589505638 433.71839232738154L1238.6564589505638 336.7401918208001L1227.652673631626 335.1933963756113L1227.652673631626 329.1236927299339L1250.0714177422733 326.4412753123281L1250.2084755665305 326.4412753123281L1253.3020664569076 328.55588174372537L1253.3020664569076 397.49596734511306L1253.0279508083936 405.817335246445L1285.5889739140757 372.12069016834556L1275.0159417570894 370.1431415612055L1275.0159417570894 363.6622644427564L1309.1433399971402 363.6622644427564L1309.1433399971402 370.1431415612055L1298.002496853945 372.12069016834556L1277.2676060127437 392.2877700233382L1304.052620810443 433.87502984081834L1312.804741873726 434.9910721240558L1312.804741873726 441.90270240445625L1278.540285809418 441.90270240445625L1278.540285809418 434.9910721240558L1287.4294646969588 433.71839232738154L1267.55608017966 401.0203113974419L1253.0279508083936 415.39180325527167L1253.3020664569076 422.59712887336616L1253.3020664569076 433.71839232738154L1263.3268673168654 434.9910721240558L1263.3268673168654 441.90270240445625L1229.767280063023 441.90270240445625L1229.767280063023 434.9910721240558L1238.6564589505638 433.71839232738154ZM1332.4040107425103 349.5648882334411Q1327.8811025420214 349.5648882334411 1325.629438286367 347.0195286400925Q1323.3777740307128 344.49374873592353 1323.3777740307128 340.5386515216434L1323.3777740307128 340.5386515216434Q1323.3777740307128 336.0353230103343 1326.1189305158573 333.078789944214Q1328.8796666901817 330.10267718891413 1333.6571108500048 330.10267718891413L1333.6571108500048 330.10267718891413Q1338.4541346990081 330.10267718891413 1340.7057989546624 332.64803678226275Q1342.9770428994966 335.1933963756113 1342.9770428994966 339.12891390071184L1342.9770428994966 339.12891390071184Q1342.9770428994966 343.925937749715 1340.2163067251727 346.74541299157806Q1337.4751502400277 349.5648882334411 1332.5410685667675 349.5648882334411L1332.5410685667675 349.5648882334411L1332.4040107425103 349.5648882334411ZM1326.7650602587842 433.71839232738154L1326.7650602587842 374.5094122482573L1316.0353905883608 371.98363234408833L1316.0353905883608 364.5041910774794L1337.8863237127994 361.82177365987354L1338.1800190504937 361.82177365987354L1341.4106677651284 364.36713325322216L1341.4106677651284 433.87502984081834L1352.6885687325807 434.9910721240558L1352.6885687325807 441.90270240445625L1315.3305217778952 441.90270240445625L1315.3305217778952 434.9910721240558L1326.7650602587842 433.71839232738154ZM1361.0099366339127 403.27197565309643Q1361.0099366339127 391.5829012128725 1365.5915839019399 382.1259113391235Q1370.1732311699675 372.6885011545541 1379.121149125047 367.1082897383668Q1388.0886467693058 361.5476580113591 1400.6196478442525 361.5476580113591L1400.6196478442525 361.5476580113591Q1406.6893514899302 361.5476580113591 1411.055622176982 362.6832799837762Q1415.4218928640335 363.7993222670136 1421.4915965097111 365.77687087415364L1421.4915965097111 365.77687087415364L1420.9237855235028 387.49074617433513L1411.7604909874476 387.49074617433513L1408.66690009707 373.0996746273258Q1407.8249734623473 369.16415710222526 1397.9568101158266 369.16415710222526L1397.9568101158266 369.16415710222526Q1388.0886467693058 369.16415710222526 1382.371377528861 377.1330905983243Q1376.6541082884169 385.0824444052438 1376.6541082884169 399.7476316007676L1376.6541082884169 399.7476316007676Q1376.6541082884169 416.39036740343147 1383.076246339327 425.0641697099963Q1389.4983843902373 433.71839232738154 1399.7777212095298 433.71839232738154L1399.7777212095298 433.71839232738154Q1405.7103670309498 433.71839232738154 1410.996883109443 431.8974812336783Q1416.283399187936 430.05699045079547 1420.0818588887796 427.5312105466265L1420.0818588887796 427.5312105466265L1422.7642763063855 433.1701610303526Q1418.9462369163625 437.1056785554531 1411.5451144064718 440.27758820254905Q1404.1439918965816 443.449497849645 1396.547072494895 443.449497849645L1396.547072494895 443.449497849645Q1384.9754761897484 443.449497849645 1377.0065426936494 438.2413005278702Q1369.0571888867303 433.01352351691577 1365.0237729157316 423.92854773757927Q1361.0099366339127 414.8435719582427 1361.0099366339127 403.27197565309643L1361.0099366339127 403.27197565309643ZM1391.3192954839406 349.83900388195553L1385.8174028244716 345.1986175463893L1408.3732047593762 317.1409229520159L1419.1028744297996 326.16715966381366Q1416.1267616744994 330.96418351281676 1406.4152358414158 339.26597172496906Q1396.6841303191522 347.587339626301 1391.3192954839406 349.83900388195553L1391.3192954839406 349.83900388195553Z " fill="#013dc4" transform="matrix(0.6149999939941406,0,0,0.6149999939941406,0,58.83333217590328)"/></g></svg>